<mxfile host="app.diagrams.net" modified="2023-03-30T16:25:51.254Z" agent="Mozilla/5.0 (Windows NT 10.0; Win64; x64) AppleWebKit/537.36 (KHTML, like Gecko) Chrome/111.0.0.0 Safari/537.36 Edg/111.0.1661.54" etag="uNMTVin09TNSmpkTL-VB" version="21.1.1" type="github">
  <diagram name="Seite-1" id="4brWPz3R9tJ5ekjdA5t1">
    <mxGraphModel dx="1617" dy="796" grid="1" gridSize="10" guides="1" tooltips="1" connect="1" arrows="1" fold="1" page="1" pageScale="1" pageWidth="827" pageHeight="1169" math="0" shadow="0">
      <root>
        <mxCell id="0" />
        <mxCell id="1" parent="0" />
        <mxCell id="9QykwS-PiCuBDbRHtT6s-1" value="BuilingApplication02&lt;br&gt;&lt;br&gt;obpa:BuildingApplication" style="rounded=1;whiteSpace=wrap;html=1;" parent="1" vertex="1">
          <mxGeometry x="40" y="40" width="140" height="60" as="geometry" />
        </mxCell>
        <mxCell id="9QykwS-PiCuBDbRHtT6s-7" value="" style="endArrow=none;html=1;rounded=0;exitX=0;exitY=0.5;exitDx=0;exitDy=0;entryX=1;entryY=0.5;entryDx=0;entryDy=0;" parent="1" source="9QykwS-PiCuBDbRHtT6s-1" target="9QykwS-PiCuBDbRHtT6s-1" edge="1">
          <mxGeometry width="50" height="50" relative="1" as="geometry">
            <mxPoint x="580" y="464" as="sourcePoint" />
            <mxPoint x="630" y="414" as="targetPoint" />
          </mxGeometry>
        </mxCell>
        <mxCell id="9QykwS-PiCuBDbRHtT6s-8" value="?&lt;br&gt;&lt;br&gt;obpa:ConstructionProject" style="rounded=1;whiteSpace=wrap;html=1;" parent="1" vertex="1">
          <mxGeometry x="40" y="240" width="140" height="60" as="geometry" />
        </mxCell>
        <mxCell id="9QykwS-PiCuBDbRHtT6s-9" value="" style="endArrow=none;html=1;rounded=0;exitX=0;exitY=0.5;exitDx=0;exitDy=0;entryX=1;entryY=0.5;entryDx=0;entryDy=0;" parent="1" source="9QykwS-PiCuBDbRHtT6s-8" target="9QykwS-PiCuBDbRHtT6s-8" edge="1">
          <mxGeometry width="50" height="50" relative="1" as="geometry">
            <mxPoint x="590" y="440" as="sourcePoint" />
            <mxPoint x="640" y="390" as="targetPoint" />
          </mxGeometry>
        </mxCell>
        <mxCell id="9QykwS-PiCuBDbRHtT6s-10" value="?&lt;br&gt;&lt;br&gt;vcard:Address" style="rounded=1;whiteSpace=wrap;html=1;" parent="1" vertex="1">
          <mxGeometry x="110" y="139" width="140" height="60" as="geometry" />
        </mxCell>
        <mxCell id="9QykwS-PiCuBDbRHtT6s-11" value="" style="endArrow=none;html=1;rounded=0;exitX=0;exitY=0.5;exitDx=0;exitDy=0;entryX=1;entryY=0.5;entryDx=0;entryDy=0;" parent="1" source="9QykwS-PiCuBDbRHtT6s-10" target="9QykwS-PiCuBDbRHtT6s-10" edge="1">
          <mxGeometry width="50" height="50" relative="1" as="geometry">
            <mxPoint x="600" y="450" as="sourcePoint" />
            <mxPoint x="650" y="400" as="targetPoint" />
          </mxGeometry>
        </mxCell>
        <mxCell id="9QykwS-PiCuBDbRHtT6s-12" value="?&lt;br&gt;&lt;br&gt;obpa:Building" style="rounded=1;whiteSpace=wrap;html=1;" parent="1" vertex="1">
          <mxGeometry x="40" y="360" width="140" height="60" as="geometry" />
        </mxCell>
        <mxCell id="9QykwS-PiCuBDbRHtT6s-13" value="" style="endArrow=none;html=1;rounded=0;exitX=0;exitY=0.5;exitDx=0;exitDy=0;entryX=1;entryY=0.5;entryDx=0;entryDy=0;" parent="1" source="9QykwS-PiCuBDbRHtT6s-12" target="9QykwS-PiCuBDbRHtT6s-12" edge="1">
          <mxGeometry width="50" height="50" relative="1" as="geometry">
            <mxPoint x="610" y="460" as="sourcePoint" />
            <mxPoint x="660" y="410" as="targetPoint" />
          </mxGeometry>
        </mxCell>
        <mxCell id="9QykwS-PiCuBDbRHtT6s-14" value="?&lt;br&gt;&lt;br&gt;obpa:Expertise" style="rounded=1;whiteSpace=wrap;html=1;" parent="1" vertex="1">
          <mxGeometry x="283" y="360" width="183" height="60" as="geometry" />
        </mxCell>
        <mxCell id="9QykwS-PiCuBDbRHtT6s-15" value="" style="endArrow=none;html=1;rounded=0;exitX=0;exitY=0.5;exitDx=0;exitDy=0;entryX=1;entryY=0.5;entryDx=0;entryDy=0;" parent="1" source="9QykwS-PiCuBDbRHtT6s-14" target="9QykwS-PiCuBDbRHtT6s-14" edge="1">
          <mxGeometry width="50" height="50" relative="1" as="geometry">
            <mxPoint x="586" y="504" as="sourcePoint" />
            <mxPoint x="636" y="454" as="targetPoint" />
          </mxGeometry>
        </mxCell>
        <mxCell id="9QykwS-PiCuBDbRHtT6s-16" value="building_law&lt;br&gt;&lt;br&gt;obpa:SubjectArea" style="rounded=1;whiteSpace=wrap;html=1;" parent="1" vertex="1">
          <mxGeometry x="283" y="280" width="183" height="60" as="geometry" />
        </mxCell>
        <mxCell id="9QykwS-PiCuBDbRHtT6s-17" value="" style="endArrow=none;html=1;rounded=0;exitX=0;exitY=0.5;exitDx=0;exitDy=0;entryX=1;entryY=0.5;entryDx=0;entryDy=0;" parent="1" source="9QykwS-PiCuBDbRHtT6s-16" target="9QykwS-PiCuBDbRHtT6s-16" edge="1">
          <mxGeometry width="50" height="50" relative="1" as="geometry">
            <mxPoint x="602" y="700" as="sourcePoint" />
            <mxPoint x="652" y="650" as="targetPoint" />
          </mxGeometry>
        </mxCell>
        <mxCell id="9QykwS-PiCuBDbRHtT6s-18" value="TechnicalBuildingOfficial&lt;br&gt;&lt;br&gt;obpa:Role" style="rounded=1;whiteSpace=wrap;html=1;" parent="1" vertex="1">
          <mxGeometry x="286" y="121" width="180" height="60" as="geometry" />
        </mxCell>
        <mxCell id="9QykwS-PiCuBDbRHtT6s-19" value="" style="endArrow=none;html=1;rounded=0;exitX=0;exitY=0.5;exitDx=0;exitDy=0;entryX=1;entryY=0.5;entryDx=0;entryDy=0;" parent="1" source="9QykwS-PiCuBDbRHtT6s-18" target="9QykwS-PiCuBDbRHtT6s-18" edge="1">
          <mxGeometry width="50" height="50" relative="1" as="geometry">
            <mxPoint x="612" y="710" as="sourcePoint" />
            <mxPoint x="662" y="660" as="targetPoint" />
          </mxGeometry>
        </mxCell>
        <mxCell id="9QykwS-PiCuBDbRHtT6s-20" value="BuildingAuthority_WeimarerLand&lt;br&gt;&lt;br&gt;obpa:Organisation" style="rounded=1;whiteSpace=wrap;html=1;" parent="1" vertex="1">
          <mxGeometry x="286" y="40" width="180" height="60" as="geometry" />
        </mxCell>
        <mxCell id="9QykwS-PiCuBDbRHtT6s-21" value="" style="endArrow=none;html=1;rounded=0;exitX=0;exitY=0.5;exitDx=0;exitDy=0;entryX=1;entryY=0.5;entryDx=0;entryDy=0;" parent="1" source="9QykwS-PiCuBDbRHtT6s-20" target="9QykwS-PiCuBDbRHtT6s-20" edge="1">
          <mxGeometry width="50" height="50" relative="1" as="geometry">
            <mxPoint x="622" y="720" as="sourcePoint" />
            <mxPoint x="672" y="670" as="targetPoint" />
          </mxGeometry>
        </mxCell>
        <mxCell id="9QykwS-PiCuBDbRHtT6s-22" value="? (=&amp;gt;BO5)&lt;br&gt;&lt;br&gt;obpa:Person" style="rounded=1;whiteSpace=wrap;html=1;" parent="1" vertex="1">
          <mxGeometry x="618" y="40" width="140" height="60" as="geometry" />
        </mxCell>
        <mxCell id="9QykwS-PiCuBDbRHtT6s-23" value="" style="endArrow=none;html=1;rounded=0;exitX=0;exitY=0.5;exitDx=0;exitDy=0;entryX=1;entryY=0.5;entryDx=0;entryDy=0;" parent="1" source="9QykwS-PiCuBDbRHtT6s-22" target="9QykwS-PiCuBDbRHtT6s-22" edge="1">
          <mxGeometry width="50" height="50" relative="1" as="geometry">
            <mxPoint x="300" y="394" as="sourcePoint" />
            <mxPoint x="350" y="344" as="targetPoint" />
            <Array as="points" />
          </mxGeometry>
        </mxCell>
        <mxCell id="9QykwS-PiCuBDbRHtT6s-26" value="" style="endArrow=classic;html=1;rounded=0;dashed=1;entryX=1;entryY=0.5;entryDx=0;entryDy=0;exitX=0.5;exitY=1;exitDx=0;exitDy=0;" parent="1" source="9QykwS-PiCuBDbRHtT6s-22" target="9QykwS-PiCuBDbRHtT6s-16" edge="1">
          <mxGeometry width="50" height="50" relative="1" as="geometry">
            <mxPoint x="760" y="244" as="sourcePoint" />
            <mxPoint x="530" y="234" as="targetPoint" />
            <Array as="points">
              <mxPoint x="690" y="310" />
            </Array>
          </mxGeometry>
        </mxCell>
        <mxCell id="9QykwS-PiCuBDbRHtT6s-27" value="obpa:hasSubjectArea" style="text;html=1;strokeColor=none;fillColor=none;align=center;verticalAlign=middle;whiteSpace=wrap;rounded=0;" parent="1" vertex="1">
          <mxGeometry x="490" y="280" width="100" height="30" as="geometry" />
        </mxCell>
        <mxCell id="9QykwS-PiCuBDbRHtT6s-28" value="" style="endArrow=classic;html=1;rounded=0;dashed=1;exitX=0;exitY=1;exitDx=0;exitDy=0;entryX=1;entryY=0.5;entryDx=0;entryDy=0;" parent="1" source="9QykwS-PiCuBDbRHtT6s-22" target="9QykwS-PiCuBDbRHtT6s-18" edge="1">
          <mxGeometry width="50" height="50" relative="1" as="geometry">
            <mxPoint x="690" y="224" as="sourcePoint" />
            <mxPoint x="480" y="314" as="targetPoint" />
            <Array as="points">
              <mxPoint x="618" y="151" />
            </Array>
          </mxGeometry>
        </mxCell>
        <mxCell id="9QykwS-PiCuBDbRHtT6s-29" value="obpa:hasRole" style="text;html=1;strokeColor=none;fillColor=none;align=center;verticalAlign=middle;whiteSpace=wrap;rounded=0;" parent="1" vertex="1">
          <mxGeometry x="470" y="124" width="100" height="30" as="geometry" />
        </mxCell>
        <mxCell id="9QykwS-PiCuBDbRHtT6s-30" value="&amp;gt;= 5 Jahre" style="rounded=0;whiteSpace=wrap;html=1;" parent="1" vertex="1">
          <mxGeometry x="283" y="440" width="183" height="50" as="geometry" />
        </mxCell>
        <mxCell id="9QykwS-PiCuBDbRHtT6s-31" value="" style="endArrow=classic;html=1;rounded=0;dashed=1;exitX=1;exitY=1;exitDx=0;exitDy=0;entryX=1;entryY=0.5;entryDx=0;entryDy=0;" parent="1" source="9QykwS-PiCuBDbRHtT6s-22" target="9QykwS-PiCuBDbRHtT6s-30" edge="1">
          <mxGeometry width="50" height="50" relative="1" as="geometry">
            <mxPoint x="725" y="454" as="sourcePoint" />
            <mxPoint x="560" y="554" as="targetPoint" />
            <Array as="points">
              <mxPoint x="758" y="465" />
            </Array>
          </mxGeometry>
        </mxCell>
        <mxCell id="9QykwS-PiCuBDbRHtT6s-32" value="obpa:work_experience" style="text;html=1;strokeColor=none;fillColor=none;align=center;verticalAlign=middle;whiteSpace=wrap;rounded=0;" parent="1" vertex="1">
          <mxGeometry x="500" y="440" width="100" height="30" as="geometry" />
        </mxCell>
        <mxCell id="9QykwS-PiCuBDbRHtT6s-33" value="" style="endArrow=classic;html=1;rounded=0;dashed=1;entryX=1;entryY=0.5;entryDx=0;entryDy=0;exitX=0;exitY=0.5;exitDx=0;exitDy=0;" parent="1" source="9QykwS-PiCuBDbRHtT6s-22" target="9QykwS-PiCuBDbRHtT6s-20" edge="1">
          <mxGeometry width="50" height="50" relative="1" as="geometry">
            <mxPoint x="540" y="90" as="sourcePoint" />
            <mxPoint x="430" y="134" as="targetPoint" />
            <Array as="points" />
          </mxGeometry>
        </mxCell>
        <mxCell id="9QykwS-PiCuBDbRHtT6s-34" value="obpa:employed_by" style="text;html=1;strokeColor=none;fillColor=none;align=center;verticalAlign=middle;whiteSpace=wrap;rounded=0;" parent="1" vertex="1">
          <mxGeometry x="480" y="48" width="106" height="20" as="geometry" />
        </mxCell>
        <mxCell id="9QykwS-PiCuBDbRHtT6s-36" value="" style="endArrow=classic;html=1;rounded=0;dashed=1;exitX=0.75;exitY=1;exitDx=0;exitDy=0;entryX=1;entryY=0.5;entryDx=0;entryDy=0;" parent="1" source="9QykwS-PiCuBDbRHtT6s-22" target="9QykwS-PiCuBDbRHtT6s-14" edge="1">
          <mxGeometry width="50" height="50" relative="1" as="geometry">
            <mxPoint x="675" y="244" as="sourcePoint" />
            <mxPoint x="510" y="344" as="targetPoint" />
            <Array as="points">
              <mxPoint x="723" y="390" />
            </Array>
          </mxGeometry>
        </mxCell>
        <mxCell id="9QykwS-PiCuBDbRHtT6s-37" value="obpa:hasExpertise" style="text;html=1;strokeColor=none;fillColor=none;align=center;verticalAlign=middle;whiteSpace=wrap;rounded=0;" parent="1" vertex="1">
          <mxGeometry x="483" y="360" width="100" height="30" as="geometry" />
        </mxCell>
        <mxCell id="9QykwS-PiCuBDbRHtT6s-39" value="" style="endArrow=classic;html=1;rounded=0;dashed=1;exitX=0.25;exitY=1;exitDx=0;exitDy=0;entryX=0.25;entryY=0;entryDx=0;entryDy=0;" parent="1" source="9QykwS-PiCuBDbRHtT6s-1" target="9QykwS-PiCuBDbRHtT6s-8" edge="1">
          <mxGeometry width="50" height="50" relative="1" as="geometry">
            <mxPoint x="180" y="70" as="sourcePoint" />
            <mxPoint x="240" y="70" as="targetPoint" />
            <Array as="points" />
          </mxGeometry>
        </mxCell>
        <mxCell id="9QykwS-PiCuBDbRHtT6s-40" value="obpa:includes" style="text;html=1;strokeColor=none;fillColor=none;align=center;verticalAlign=middle;whiteSpace=wrap;rounded=0;" parent="1" vertex="1">
          <mxGeometry x="70" y="209.5" width="100" height="30" as="geometry" />
        </mxCell>
        <mxCell id="9QykwS-PiCuBDbRHtT6s-41" value="" style="endArrow=classic;html=1;rounded=0;dashed=1;exitX=0.5;exitY=1;exitDx=0;exitDy=0;entryX=0.5;entryY=0;entryDx=0;entryDy=0;" parent="1" source="9QykwS-PiCuBDbRHtT6s-8" target="9QykwS-PiCuBDbRHtT6s-12" edge="1">
          <mxGeometry width="50" height="50" relative="1" as="geometry">
            <mxPoint x="695" y="230" as="sourcePoint" />
            <mxPoint x="530" y="330" as="targetPoint" />
            <Array as="points" />
          </mxGeometry>
        </mxCell>
        <mxCell id="9QykwS-PiCuBDbRHtT6s-42" value="obpa:hasBuilding" style="text;html=1;strokeColor=none;fillColor=none;align=center;verticalAlign=middle;whiteSpace=wrap;rounded=0;" parent="1" vertex="1">
          <mxGeometry x="110" y="330" width="100" height="30" as="geometry" />
        </mxCell>
        <mxCell id="9QykwS-PiCuBDbRHtT6s-43" value="" style="endArrow=classic;html=1;rounded=0;dashed=1;exitX=1;exitY=0.5;exitDx=0;exitDy=0;entryX=0;entryY=0.5;entryDx=0;entryDy=0;" parent="1" source="9QykwS-PiCuBDbRHtT6s-12" target="9QykwS-PiCuBDbRHtT6s-14" edge="1">
          <mxGeometry width="50" height="50" relative="1" as="geometry">
            <mxPoint x="705" y="240" as="sourcePoint" />
            <mxPoint x="540" y="340" as="targetPoint" />
            <Array as="points" />
          </mxGeometry>
        </mxCell>
        <mxCell id="9QykwS-PiCuBDbRHtT6s-44" value="obpa:isKindOf" style="text;html=1;strokeColor=none;fillColor=none;align=center;verticalAlign=middle;whiteSpace=wrap;rounded=0;" parent="1" vertex="1">
          <mxGeometry x="179" y="365" width="100" height="30" as="geometry" />
        </mxCell>
        <mxCell id="9QykwS-PiCuBDbRHtT6s-47" value="" style="endArrow=classic;html=1;rounded=0;dashed=1;exitX=0.75;exitY=1;exitDx=0;exitDy=0;entryX=0.25;entryY=0;entryDx=0;entryDy=0;" parent="1" source="9QykwS-PiCuBDbRHtT6s-1" target="9QykwS-PiCuBDbRHtT6s-10" edge="1">
          <mxGeometry width="50" height="50" relative="1" as="geometry">
            <mxPoint x="345" y="340" as="sourcePoint" />
            <mxPoint x="180" y="440" as="targetPoint" />
            <Array as="points" />
          </mxGeometry>
        </mxCell>
        <mxCell id="9QykwS-PiCuBDbRHtT6s-48" value="vcard:postal-code" style="text;html=1;strokeColor=none;fillColor=none;align=center;verticalAlign=middle;whiteSpace=wrap;rounded=0;" parent="1" vertex="1">
          <mxGeometry x="183" y="199" width="100" height="30" as="geometry" />
        </mxCell>
        <mxCell id="9QykwS-PiCuBDbRHtT6s-49" value="" style="endArrow=classic;html=1;rounded=0;dashed=1;exitX=0.5;exitY=1;exitDx=0;exitDy=0;entryX=0;entryY=0.5;entryDx=0;entryDy=0;" parent="1" source="9QykwS-PiCuBDbRHtT6s-10" target="9QykwS-PiCuBDbRHtT6s-51" edge="1">
          <mxGeometry width="50" height="50" relative="1" as="geometry">
            <mxPoint x="405" y="390" as="sourcePoint" />
            <mxPoint x="240" y="490" as="targetPoint" />
            <Array as="points">
              <mxPoint x="180" y="225" />
            </Array>
          </mxGeometry>
        </mxCell>
        <mxCell id="9QykwS-PiCuBDbRHtT6s-50" value="vcard:hasAddress" style="text;html=1;strokeColor=none;fillColor=none;align=center;verticalAlign=middle;whiteSpace=wrap;rounded=0;" parent="1" vertex="1">
          <mxGeometry x="150" y="109" width="100" height="30" as="geometry" />
        </mxCell>
        <mxCell id="9QykwS-PiCuBDbRHtT6s-51" value="postal-code" style="rounded=0;whiteSpace=wrap;html=1;" parent="1" vertex="1">
          <mxGeometry x="286" y="199" width="180" height="51" as="geometry" />
        </mxCell>
        <mxCell id="9QykwS-PiCuBDbRHtT6s-52" value="?&lt;br&gt;&lt;br&gt;obpa:Sector" style="rounded=1;whiteSpace=wrap;html=1;" parent="1" vertex="1">
          <mxGeometry x="570" y="194.5" width="100" height="60" as="geometry" />
        </mxCell>
        <mxCell id="9QykwS-PiCuBDbRHtT6s-53" value="" style="endArrow=none;html=1;rounded=0;exitX=0;exitY=0.5;exitDx=0;exitDy=0;entryX=1;entryY=0.5;entryDx=0;entryDy=0;" parent="1" source="9QykwS-PiCuBDbRHtT6s-52" target="9QykwS-PiCuBDbRHtT6s-52" edge="1">
          <mxGeometry width="50" height="50" relative="1" as="geometry">
            <mxPoint x="746" y="1186" as="sourcePoint" />
            <mxPoint x="796" y="1136" as="targetPoint" />
            <Array as="points">
              <mxPoint x="660" y="225" />
            </Array>
          </mxGeometry>
        </mxCell>
        <mxCell id="9QykwS-PiCuBDbRHtT6s-54" value="" style="endArrow=classic;html=1;rounded=0;dashed=1;exitX=0.25;exitY=1;exitDx=0;exitDy=0;entryX=0.821;entryY=-0.025;entryDx=0;entryDy=0;entryPerimeter=0;" parent="1" source="9QykwS-PiCuBDbRHtT6s-22" target="9QykwS-PiCuBDbRHtT6s-52" edge="1">
          <mxGeometry width="50" height="50" relative="1" as="geometry">
            <mxPoint x="790" y="700" as="sourcePoint" />
            <mxPoint x="640" y="720" as="targetPoint" />
            <Array as="points" />
          </mxGeometry>
        </mxCell>
        <mxCell id="9QykwS-PiCuBDbRHtT6s-57" value="" style="endArrow=classic;html=1;rounded=0;dashed=1;exitX=0;exitY=0.5;exitDx=0;exitDy=0;entryX=1;entryY=0.5;entryDx=0;entryDy=0;" parent="1" source="9QykwS-PiCuBDbRHtT6s-52" target="9QykwS-PiCuBDbRHtT6s-51" edge="1">
          <mxGeometry width="50" height="50" relative="1" as="geometry">
            <mxPoint x="720" y="700" as="sourcePoint" />
            <mxPoint x="536" y="756" as="targetPoint" />
            <Array as="points" />
          </mxGeometry>
        </mxCell>
        <mxCell id="9QykwS-PiCuBDbRHtT6s-58" value="obpa:CoversSector" style="text;html=1;strokeColor=none;fillColor=none;align=center;verticalAlign=middle;whiteSpace=wrap;rounded=0;" parent="1" vertex="1">
          <mxGeometry x="546" y="164.5" width="100" height="30" as="geometry" />
        </mxCell>
        <mxCell id="9QykwS-PiCuBDbRHtT6s-59" value="vcard:postal-code" style="text;html=1;strokeColor=none;fillColor=none;align=center;verticalAlign=middle;whiteSpace=wrap;rounded=0;" parent="1" vertex="1">
          <mxGeometry x="468" y="200" width="100" height="30" as="geometry" />
        </mxCell>
        <mxCell id="9QykwS-PiCuBDbRHtT6s-61" value="" style="shape=image;verticalLabelPosition=bottom;labelBackgroundColor=default;verticalAlign=top;aspect=fixed;imageAspect=0;image=data:image/png,iVBORw0KGgoAAAANSUhEUgAAAHEAAABxCAYAAADifkzQAAAGvElEQVR4Xu2dLTBuXRTH9w2KpCgKRVEURVIURVEURaEYQ1FIFIVBoSiKoiiKIimKoigURZEUwfv+z8yZ99znPWfttfdZ5+yPWXvG3Jn7nLM//r+91v5Y6+HP77/FaElagT8KMWl+RecVYvoMFWIGDBWiQsxBgQzGoGuiQsxAgQyGoJaoEDNQIIMhqCUqxAwUyGAIaokKMQMFMhhC1pb4/Pxs3t/fzeLiYgaomoeQLUQAPDo6Mj8/P2Zpaan4ybVkCfHp6cmcnZ0VAMsCa1xeXs6SY3YQHx4ezMXFRS2subk5s7a2lh3IrCBSAEtyOYLMBuLNzY3BD6dMT0+b7e1tMzQ0xHk8+meygOgCsCSSE8jkIV5dXZm7uzsva5mamioscnh42Ov9WF5KGiI2MFgH25Tx8XGzt7eXNMhkIXIBwsq+v79JzqmDTA4izn44xOMwbys4TkxMTJj9/X0ryNHRUbO7u2vwb2olKYhcgNh1Yq3D5gXl8/PTHBwcFP9SJVWQyUCES4QFvry8kCAGAZYPu4DEBICLTaUkAREA4RJxmU0VrH87OztmcnKy9rGvry9zeHjIqgebnVRARg/RBSBHeOn6YrDWqCF25QLbuuYYwFX7EC1EF4BNu0q437e3N4P70sHiu0mKDSD6EyVEiI+1C2sYVcbGxoo1sO5YgA0QNkKwupWVFbOwsFALEiErhK6ogs3S6upq7WSIAWp0EAGQc66jDujVgHApMhUY5l4c4NxZZ9WhQUYF8fX1tbDANjcsdQHhUmQqMMwFCYucn58Pze2v9qOBWGc9dUpR0Ye28cTr62tze3trBRRbukcUEPsCWNKhAsPcsFZMIINDhPVcXl7+lQ9TZwqzs7NmfX29NpAL64EVuZSZmRmzsbFRWx9CWwhx2QrcKtxr6BIUIsf9QSAJy+nCNdv61hfcYBDv7+8LC7QVara3CQiX7VKBYa6XwCSDRYZK9wgCUWLd4e4mbZMEn7seV1ytmtOHNs/0DjE2gKV4KYPsFSLcJ9yorTQdqrlXZbb6mz6n4oncSwhEUHCL1GfeTm8Que4vFMASrATIvtM9OocI64EF2hKasCnAlh9b/8GCGxzc5OBGp48yMjJSWFNdPPHj46Poiy1LAO+iDtTVdekUItf9NUXjMXhu/E9aKLjDpvikRIRFsr+dQeQChFiwwDIfpjo4biReUpBqXVSmAEDCImGZVOkjb6cTiFzrkZjtXQEs65XwEtQ4JfovDjEngKmAFIUIF4NArC2hSWIHKDGDXetou3OGRSKTDrdEkkUMosRizz2LSQrgWldbkJR7du1L+bwIRC5AattdTafwHUxf71HpHtzjVDW5uW2/W0PkWo/EtVbbwUq+H1O6RyuIXIBUpIBKp5AUvYu6qHQPboRFIm/HGyLX/bVNp+hCfMk6JWKdTe6Z208viNx0Cip6zg0IcwcS8jkJkG3SPZwhcgFSA/NJpwgJidO2xIT1BekEkWs9EjOTI1xsz0gsHT6/3YMNkQtQYrGPDY5LfyQ2ca4gWRC57k9i2+0iWKzPShynKPc8OG4rRG46BbXD4gaEY4Xi0y8KpMTOvtonEiLXAtteRfmIlMI7EnfEWGcRXKYKCRGHeVxoN0WxqW8LceOJKcBo00cbSOrbX9AXCdNInPaGiBcRmD0+Pv5faoQtztZnOkUbkft4l0r3aLp3xjtbW1uNX11nu9PyQVjV+fm5eXx8LP7LdhOP31Rh+wUJfYgXUxsIQ52entZmwQ2CxHqKC3Lur2OxbmyqQuD7Dkg5tH03fnNz05pIFJPAffXl5OSkEUwZTIcFIl3FJeXRCSIGi8ZsDSjE+mlBQeRqW1ezM0TOrFWIfhA52ipEX5WE3rNZom8zaom+ynm8pxAJ0XzF6dvt+/bTNl+ysERfcRQiMT1SESeVfqolZjDZFKJCtM2B+s9TcVOp9NNGQTc2lt9GbBPQ5XPfDZitDYWoENWd2qyk+rlaoh72GxVQd6ruVN2pulMXBdSdqjutU0DPiRnchChEhei8GOgRQ9dEXRN1TXR0HKmsNan00ya/Hvb1sK+HfZuV6N0pUyHfXZ+6Uz1iMKfYf4/5TjZbQ7om6pqoa6LNSnRNZCrk66Z0TdQ1kTnFdE1kCaWW+Pv7y1LK4aFU3FQq/bRJ38nuFH/6AF8R76vgD4r4/J2mVPpp07ETiLZG9XNZBRSirJ5BalOIQWSXbVQhyuoZpDaFGER22UYVoqyeQWpTiEFkl21UIcrqGaQ2hRhEdtlGFaKsnkFqU4hBZJdtVCHK6hmkNoUYRHbZRhWirJ5BavsHbDwqF8xqJ+QAAAAASUVORK5CYII=;" parent="1" vertex="1">
          <mxGeometry x="50" y="305" width="48" height="48" as="geometry" />
        </mxCell>
        <mxCell id="9QykwS-PiCuBDbRHtT6s-62" value="" style="shape=image;verticalLabelPosition=bottom;labelBackgroundColor=default;verticalAlign=top;aspect=fixed;imageAspect=0;image=data:image/png,iVBORw0KGgoAAAANSUhEUgAAAHIAAAByCAYAAACP3YV9AAAHTElEQVR4Xu2dPSw1TRTH5yk0FDQajdtIXI1G4TY0t1HQaEQiEpHQIBGJSHAjhGiIKNBIRKKj0GgoqCQ0GpFQ0GgoroJG8b7v/77Pyti7HzN7z97ZjzPJE8lzZ8+ePb89s2dmzsz8+ee/IrjE3gJ/GGTsGZYegEEmgyODTAhHBskgk2KBhDwHfyMZZEIskJDHYI9kkNGwwP39vXh5eRFfX1+BFMpmsyKTyYja2tpA10floth65N3dndjb2xPFYrFiWwLi0NCQ6O7urliWKQGxBPn4+CgKhQK5zcbGxmILM5YgAREwqQs8c2dnR9TU1FCLDl1e7EB+f3+L4eHh0AyztrYmmpubQ5MfluDYgVRtVuFd+Xy+BOX19VVcXFwofU/j2rzGDiSi1JWVFc8Xu6GhQSwtLYnGxsafeohq19fXfZtkBulgWkSUT09Ppe4BVXl/fxeXl5ee4iYmJkQulyurAz3m5uY8r+3o6CBtWpuamkry8DfMEopHAiC6BugimChbW1u/vFHWYXR0NHCfs5JnaWlpEfD2sICSg0Qwsri4SOqFugZ0C1igG0Dir4mCJn91dVXgL3UhB3l2diYODw+p9dSS19fXJwYGBsquub29FRsbG1qyqCtj0AGeSV3IQcJQMJjpYg9aEO1ubm4qRa5h6o4ADE0/dSEHOTU1Jd7e3qj1DCQPQUZdXV3pWkS7USlHR0fkqiQaJLm1iATGHiQiN93hLzSJpoITi1tbW5s2Qq8WIPYgvboFbpaKQlMdxPCDg4Ou8IPI83uTqtq0Msj/cTBIv9cypN+DGJ490gaDm1a1t5ObVgU7sUfajMTfyBR/I7e3t8XHx4eC34RXZX5+Xls4fyO1TRbNCxhkNLloa8UgtU0WzQsYZDS5aGvFILVNVp0LMN6Ledbe3l7X7ANZEwZZHS5adwFEzLMidQXziYhi5cQuJ2EMUsvE4VeWIVp3Q94N0km8ZnIYZPhslO/gBBHwpqenRXt7u6ccBqlsZpqKgOXkWZVAhGapBYlAgjL/Faur/FL/kbS8vLwskMva39//82ZUCjHVIJE9TplXg4DEa2bfgmi9PACJfxQQGSRhgpQfyPPzc7G/v/+rfUYaJcDKidWq30R7Q5/aprXaHgnDHx8fl/65laAQU+2RJr6RXjArgZhqkDQxaDApds+sFCKDDMaB5CoLJgVEBkmCJLiQ09PTUpfFr7OvcofUBjsqxolTHQYZYVpofnt6epT25GGQEQWJhbtYKY2md2FhwRcmg4wgSAuipRpgYvbDqzDIiIG0Q4R6KhtGMMgIgQwKMdXdDxMjO9YAeWdnZ9nWZZVATDXIao+12mc55OayUogMsoqzH06bVgDmw8ND2T4+Kt9Env34a4FqeyRu6+R5diBBILJHVtEjLWBeMINCTDVIk8EqxTeRm1aTBKV7yzAr8URLJPcjDYIFzNbWVpJdlBmkQZCUt2aQlNY0KItBGjS+W7IyVPL6zUllBmkIJKaoTk5OHBfoYB4SGyWqTF9xsGMIIG4LiAh0UOyrreTELNW5SO5HGoCJjPPJyclfuypbMK+ursryXq2MdD9VU9u0wiuwXzlV6erq8l3DaN0L2eVYAyIfy4RTCuzHNOlsmptakCbGWuWXxgmm/LuqJ6b+G2kaJAAAJvZjt28r6ra1tlfrwR5J1Lb6LeJxuo3bWhCdIIc9ssrL6uwg/Rb0qO4dkHqQRI4YSIwTROSvou8o78+uAzO1TWsgAgQXITLF6TwyMCuwwf/hNzl6dTvlx64KgySAoysCwBBs4a+9iyFHszrTWwxSlwJRfUDEiXZOB78A5vPzs9b0FoMkAmNaDIM0TYDo/gySyJC6YrABBGY/ZmdnyxboYPjw+vq6tFGS6rklDFKXAEF9QMRecxjRsXf+5ZkRLIBVhckgCcDoiHCa/bBg3tzc/ExvWTJVx1xTC9Lk7IfskRYwdP7th7WxR/61jtcpA6YHzZ1gyp6N/uXIyAh/I2GUKIOEfm4wdeYhUz/WatojAUAObGRv1GlSGaTh2Q83iBYY3ams1AY7GAb7/PzUCTg962YyGd8NGywBThCx9Sd2q5QHzHVgphYkGUFNQU7dD+ubiENI0eTLGQMIePL5vO9dGKSviegryDMc+B5idMcqcgCk2ofEtQySnpOSRMDEFmbj4+NlXQzAxO/I3VEtDFLVUhGvxyAjDkhVPQapaqmI12OQEQekqh6DVLVUxOslGiQy0Orr6yOOgEY99D/dSpAzm/20quph2X7KpOV3BpkQ0rEAWSgUBIa2uDhbADk/BwcH5OYhb1qxyyP2eePibAEc8xTkFHU/e5KDRHrEzMxM2dI0P0XS8nuQVWIqtiEHiZti8cvu7m7Zil8VhZJaB00qstixOCiMEgpIKFosFksp+Bhsti/hDuNBoiwzm82KXC4ncBJsWCU0kGEpzHKdLcAgE/JmMEgGmRALJOQx2CMZZEIskJDHYI9kkAmxQEIegz2SQSbEAgl5jH8BI2TcFAzi+cMAAAAASUVORK5CYII=;" parent="1" vertex="1">
          <mxGeometry x="183" y="41" width="55" height="55" as="geometry" />
        </mxCell>
        <mxCell id="9QykwS-PiCuBDbRHtT6s-63" value="" style="shape=image;verticalLabelPosition=bottom;labelBackgroundColor=default;verticalAlign=top;aspect=fixed;imageAspect=0;image=data:image/png,iVBORw0KGgoAAAANSUhEUgAAAHIAAAByCAYAAACP3YV9AAAJcUlEQVR4Xu2dO4xOTRiAR6HR0Gg0NkFBo7ASNAoKCgoakWhEsmwiEpGIxCUuIRKRCHFJkIiGgoKCwhY022yjobASGo2GRqPw/89J5s/5vz1zO2dmvvccM8kmy57vnJn3Oe/MO+9lvkV//m2qtN5LYFEB2XuG1QAKyGFwLCAHwrGALCCHIoGBjKOskQXkQCQwkGEUjSwgByKBgQxjMBr54cOHBUgmJibUkiVLBoLKPoxegvz165f69OmT+vjxo5qfn1dNEPWwAQnQlStXqrVr16rJyclBgu0VyO/fv6uXL1+qt2/fqt+/f7cCsmzZMrV582a1a9cuxe9Dab0AifYBcG5uLprcFy9erHbu3Kn27t2r+L3vTTzIN2/eqMePH7fWQBegFStWqKNHj1ZTb5+bWJBMnQAEZOqGRh4/flytX78+9aOS3V8syIcPH2aBqCXbd5giQWKFXrp0Kdnba7oxFu7hw4fV169f/3cJ0y/aKnkrIw4kU+qJEycUFqqkJn0tFQfyxYsX6smTJ5IY/tcXpt+TJ0+qdevWieufOJCnTp1aMLVJkhp7z8uXL4vbg4oCyXR67NgxSdwa+4JDgS2LpCYKJBv+69evS5JPY18weu7cuSPKkSAKJGsja2TuhocHPyxbnh8/fng9nrVS0r5TFMibN2+q2dlZL0HGuEhvN7QjHQfEq1evvG6Na48fKU0UyHPnzlVRjRxtzZo1ampqSrGt0A0vElrp07Zu3Vp9XkoTBXJ6etp7amsrQLYQaNLu3bsX3AJHAFazT0OLcetJaaJA7t+/P6lcEP6BAwfU8uXLG5+DM+LQoUNeDnr2kqdPn07a35Cb/xUgAYgW+kQ4cA3aAtVauAWk5TWLqZFMoQBkCvUBqLv17NkzxY+rlTUyMUi2BJs2bVIbN25s5eT2XSd5Qfbt2+fine3vvZ9a0Tws0A0bNlQpHDHSN3ysZ9Za9p9SWu9AAo2pctWqVRXA+vYhllDZAgHT1rBYJSVy9QZk7g24K7B9/vz56kWS0gpIAwlXcPvRo0fF12p6i20OgdwaaQPJ1H7lyhUpylj1Q5RGEsIyZQZIAilt61FAWnTKppHSLFZxIMnV+fbtW6N4JWmkNENHHEibe4w9G5qQq5mC3Oxb79+/L8rQEQfy6tWr6v37942scqdXmEJaEg0dcSDv3btXFeg0tdxOalO2gkRDp1cgc09ppmleoqEjDqQr8pDLLUb9JXHJpibR0OkdyFxRefJ2yN9pahg6EksHRDkEfHJm8KiExBdDrVyyBHBMNGXTkVlw48aN0FtmuV4USAwdDB5bS62VtpKF3AZXyBvQO5AMLpXBQfgKI8dU1k7QmnxWiU0USFfEQQswRTENUykxSFsVGGErjB2JrZcgEeRocnEX4eIWpFTB5B7U9yb74Pbt210eleyzvQWpJaJzVNse6EBm+4MHDxRbDp+W2tjy6UPTNb0HyaCwJkmEwo3n21gPnz596pX6WL8nz2lKbvZ9bqrrRIFEO6j/aNsAikFCIhZblHoiFgaMPmQJh/hoebnvM4uv1UNSto24x8ezXUKGubSqZVEaaYt+ZKPk8aDUe1mPLiy4RAzIkLqLNgON/RkqlkPW5NjPH72fGJC+e8gmgTDNYbWaYplNn2GtY01teywa258LFy4kyattA10MyC6HQGhPD1sIYLIfxJgZ3VJQlbx06dIqsRhDyCcR2SZUSbFJESC7Wqtty8ABfeTIEa8yOoCi9Wg/VrF+GdpoT4rPiABJ1OPnz58Lxvfu3TvnwUldtwOucnPgbdmyRe3Zs8dYV5kCTOg9RYCsdxpf58zMjAKi62AG1qkzZ850CmuhlRcvXnTuK3kWQHfs2CFmXazLTQxIjJ3Xr197Gx9NZwCEvsX6emDiiPA1lng2B/eWIp6axAH4/PnzIFfZ9u3b1cGDB9tyM36OeCjFO76nMzOto6EYPeNuY9PItr5OLTCsTjSCotYuXhYsXIwtflzRDxOsNr7e2OCzg2Tdw1ltSntsM0ANla0Fxsnq1aur2+giWADp9ZbfMazQOvaQbeGZ9rPMFClqNl1yyQoS65R8Ud+QkavzUv9OdCT3WelZQALu7t273oaMVEAh/WL9xI2XSzuTg2QtvHXrlnM/GCKkvlzL1M6JzDl8sklBYs6TQuFrBYYAIncGN5z+Epc2Jy6ztrKe6h8s1phrph4PR52ltmyTgWRbQVgqBUQENBoTxJjREIBrakx5bO6xNOsnYNmyy0NeMNO1qaMlSUAC7+zZs05vSRcBxU65YPbgxUvVmGZJbo5xfExTH5OAzBHpjx3cddWdxAAcu8/1PiUBaTsLIIZAuEfs1ETW8raxyZAxoZWmQw1D7jN6bXSQXQLEoQOJKRSqr3Lsb2MvCVpm0UG6wkKhsGzXxyqzy3kofqqyg+ggc01RAI51rkDXwHbIyxl7SUimkbaTOUIG7HNtrFqMnLMI40pxalZ0jcxh6GjIscrRfU6D9HmxfK+JubYn08icIBlE11qMcaRhFpANr3zXWknfg3Z9tc3nugKyQUpdUxJzOC9Gu11ANoAkTHTt2jUfRWi8JveXxtCJAtKAq8tJG7nX9ALSonNtHQOpIx6mLheNNEim7cmR4/p2vALSALKt2ytHxKOpywWkASSBYtbJ0DaueswC0kIKyzU00SlXxKNsPwJULDQvhrQQ/MLjaEUjLVIPLSPwOS4tFeQC0iLZ0PK63BGPetcLSIeKhISHulRId9XUAtIhQd9jU8YR8SgaGfD6+0ZCup4dENClxkuLRjok6JtuOI6IR9HIgNffNx9mHBGPAjIApG9kYRwRj96BdH3vYiCX4MtdkRBqRPhWvHE1EsYwytoeS2rqd/TkKx7U5lyAWIJ1pUiOK+LBtM8RLzguUrQkIHVHAcpRKwgvVVXWqFBcB8ibvmEnhXC5J+UB27Ztq3JwY2thvc9JQeoH6Xp9gFLy5jo/p4tQXSmSti9S6/Lc+mf1ubEATPnVFtlBjgqIFH209fPnz1VNI7/HbLYUydgRD33gBMAomOW8u1SlczYZZdFIH0gA1YcBosHz8/PVx9pANjkG2qY+alj0B1j8G2CjxbI+40x1jRiQrgGSX/Ply5fqsjpo/TmOXNEVyxz6x5o02rQRVv9/gNQbMU2OeaFNTEyI/PqkJln1BqQL9N/+9wJyIG9AAVlADkQCAxlG0cgCciASGMgwikYWkAORwECGUTSygByIBAYyjH8AL/uJBcRX9MIAAAAASUVORK5CYII=;" parent="1" vertex="1">
          <mxGeometry x="560" y="80" width="50" height="50" as="geometry" />
        </mxCell>
      </root>
    </mxGraphModel>
  </diagram>
</mxfile>
